<?xml version="1.0" encoding="UTF-8" standalone="no"?>
<svg
   xmlns:dc="http://purl.org/dc/elements/1.1/"
   xmlns:cc="http://creativecommons.org/ns#"
   xmlns:rdf="http://www.w3.org/1999/02/22-rdf-syntax-ns#"
   xmlns:svg="http://www.w3.org/2000/svg"
   xmlns="http://www.w3.org/2000/svg"
   xmlns:sodipodi="http://sodipodi.sourceforge.net/DTD/sodipodi-0.dtd"
   xmlns:inkscape="http://www.inkscape.org/namespaces/inkscape"
   sodipodi:docname="Goblin_no_1.svg"
   inkscape:version="1.0 (4035a4fb49, 2020-05-01)"
   id="svg8"
   version="1.1"
   viewBox="0 0 190.5 190.5"
   height="720"
   width="720">
  <defs
     id="defs2" />
  <sodipodi:namedview
     inkscape:window-maximized="1"
     inkscape:window-y="-11"
     inkscape:window-x="-11"
     inkscape:window-height="986"
     inkscape:window-width="1920"
     inkscape:snap-global="false"
     units="px"
     showgrid="false"
     inkscape:document-rotation="0"
     inkscape:current-layer="layer1"
     inkscape:document-units="mm"
     inkscape:cy="377.5233"
     inkscape:cx="310.45359"
     inkscape:zoom="1"
     inkscape:pageshadow="2"
     inkscape:pageopacity="0.0"
     borderopacity="1.0"
     bordercolor="#666666"
     pagecolor="#ffffff"
     id="base" />
  <metadata
     id="metadata5">
    <rdf:RDF>
      <cc:Work
         rdf:about="">
        <dc:format>image/svg+xml</dc:format>
        <dc:type
           rdf:resource="http://purl.org/dc/dcmitype/StillImage" />
        <dc:title></dc:title>
      </cc:Work>
    </rdf:RDF>
  </metadata>
  <g
     id="layer1"
     inkscape:groupmode="layer"
     inkscape:label="Layer 1">
    <g
       transform="matrix(0.788884,0.48394839,-0.48394839,0.788884,43.178988,-56.295733)"
       style="stroke-width:1.0805;stroke-miterlimit:4;stroke-dasharray:none"
       id="g1132">
      <path
         id="path1079-9-9"
         style="fill:#aeaeae;fill-opacity:1;stroke:#000000;stroke-width:1.0805;stroke-miterlimit:4;stroke-dasharray:none;stroke-opacity:1"
         d="m 160.00599,54.114267 c 5.97975,-0.508758 9.64081,1.731572 9.77468,5.708743 0.10842,3.220979 -0.0796,5.780361 -5.93432,5.278775 -1.80038,-0.154244 -3.90841,-3.060993 -4.70097,-4.259911 -2.85456,-4.318203 -3.51403,-6.355406 0.86061,-6.727607 z"
         sodipodi:nodetypes="sssss" />
      <path
         sodipodi:nodetypes="sssss"
         d="m 187.00416,41.932127 c 1.69105,5.758177 0.22583,9.792475 -3.64476,10.716802 -3.13466,0.748584 -5.68013,1.074745 -6.35619,-4.762401 -0.20789,-1.794977 2.22008,-4.44034 3.23685,-5.456074 3.6622,-3.658376 5.52697,-4.710868 6.7641,-0.498327 z"
         style="fill:#aeaeae;fill-opacity:1;stroke:#000000;stroke-width:1.0805;stroke-miterlimit:4;stroke-dasharray:none;stroke-opacity:1"
         id="path1079-9-9-6" />
      <path
         id="path1076"
         style="fill:#674700;fill-opacity:1;stroke:#000000;stroke-width:1.0805;stroke-miterlimit:4;stroke-dasharray:none;stroke-opacity:1"
         d="m 179.80254,109.01891 c -4.94096,37.74423 -2.83986,37.88754 -9.72904,37.50463 -6.88915,-0.38295 -5.14188,-0.95621 -4.30582,-38.61152 0.87656,-39.479245 -3.50248,-51.970829 -0.15783,-54.862447 5.52923,-4.780287 7.11287,-3.98871 11.26619,-4.306781 4.15332,-0.318072 6.63004,1.142253 9.08046,4.43269 2.46015,3.303484 -4.51759,43.343202 -6.15396,55.843428 z"
         sodipodi:nodetypes="szsszss" />
      <path
         id="path1079"
         style="fill:#aeaeae;fill-opacity:1;stroke:#000000;stroke-width:1.0805;stroke-miterlimit:4;stroke-dasharray:none;stroke-opacity:1"
         d="m 191.61309,68.07449 c -4.0115,4.463635 -8.21406,5.335993 -11.03375,2.527944 -2.28358,-2.274155 -3.89819,-4.26884 0.71365,-7.910269 1.41819,-1.119777 4.94458,-0.443328 6.34299,-0.111663 5.0367,1.19457 6.91184,2.228502 3.97711,5.493988 z"
         sodipodi:nodetypes="sssss" />
      <path
         sodipodi:nodetypes="sssss"
         d="m 160.89694,85.131774 c 4.52982,-3.93661 8.80774,-4.285704 11.26083,-1.15231 1.98668,2.53763 3.34383,4.71569 -1.6807,7.76253 -1.54509,0.93693 -4.96157,-0.16791 -6.3086,-0.66897 -4.85164,-1.80471 -6.58544,-3.06131 -3.27153,-5.94125 z"
         style="fill:#aeaeae;fill-opacity:1;stroke:#000000;stroke-width:1.0805;stroke-miterlimit:4;stroke-dasharray:none;stroke-opacity:1"
         id="path1079-9" />
    </g>
    <path
       sodipodi:nodetypes="czsssc"
       d="m 122.93264,118.36319 c 4.64138,3.64781 8.69734,5.57425 3.47591,12.87526 -5.22142,7.301 -8.69063,3.31318 -13.33201,-0.33463 -4.64138,-3.64781 -8.24586,-6.44763 -3.1744,-12.95807 2.53573,-3.2552 6.13724,-9.31328 9.03417,-7.15319 4.95743,3.6965 0.25214,4.01061 3.99634,7.57063"
       style="fill:#96ff11;fill-opacity:1;stroke:#000000;stroke-width:1;stroke-miterlimit:4;stroke-dasharray:none;stroke-opacity:1"
       id="path937-2" />
    <path
       id="path1012-1"
       style="fill:#674700;fill-opacity:1;stroke:#000000;stroke-width:1.1128;stroke-miterlimit:4;stroke-dasharray:none;stroke-opacity:1"
       d="m 113.90221,158.27971 c -0.25737,7.11132 -3.12787,8.76441 -13.42367,8.76441 -10.295813,0 -12.689483,-3.11468 -12.741313,-10.23046 -0.0911,-12.50495 3.90936,-12.83296 14.047633,-11.03873 6.60181,1.16835 12.52474,1.24857 12.11735,12.50478 z"
       sodipodi:nodetypes="sssss" />
    <path
       sodipodi:nodetypes="sssss"
       d="m 92.226077,158.90208 c -0.25737,7.11132 -3.12787,8.76441 -13.42367,8.76441 -10.295807,0 -12.689479,-3.11468 -12.741303,-10.23046 -0.09107,-12.50495 3.909352,-12.83296 14.047623,-11.03873 6.60181,1.16835 12.52474,1.24857 12.11735,12.50478 z"
       style="fill:#674700;fill-opacity:1;stroke:#000000;stroke-width:1.1128;stroke-miterlimit:4;stroke-dasharray:none;stroke-opacity:1"
       id="path1012" />
    <g
       transform="translate(-21.498203,11.819777)"
       id="g1010">
      <path
         id="rect939"
         style="fill:#674700;fill-opacity:1;stroke:#000000;stroke-width:1;stroke-miterlimit:4;stroke-dasharray:none;stroke-opacity:1"
         d="m 91.159994,96.476737 c 8.258168,-13.602796 29.473306,-8.780308 35.555726,-1.883013 10.81776,12.267046 18.05836,39.908356 13.59401,43.893826 -6.47218,5.77794 -55.523653,6.47656 -61.658364,-0.46994 -2.168917,-2.45592 1.923887,-24.10576 12.508628,-41.540873 z"
         sodipodi:nodetypes="sssss" />
      <path
         sodipodi:nodetypes="cscc"
         d="m 102.75301,96.697855 c 7.52696,-12.398341 18.32604,-7.499253 23.90989,-1.248174 9.48471,10.618079 16.52192,36.062029 14.14126,41.257929 -23.41859,8.43062 -40.892697,-17.96963 -38.05115,-40.009755 z"
         style="fill:#875d00;fill-opacity:1;stroke:none;stroke-width:0.911455;stroke-miterlimit:4;stroke-dasharray:none;stroke-opacity:1"
         id="rect939-0" />
      <path
         id="rect942"
         style="fill:#000000;fill-opacity:1;stroke:#000000;stroke-width:1;stroke-miterlimit:4;stroke-dasharray:none;stroke-opacity:1"
         d="m 78.933372,129.83058 c 1.261392,2.13698 3.789869,4.1259 7.635963,7.4449 6.159804,-4.93532 10.197924,-5.72659 15.604195,-8.33708 5.78146,5.89396 7.86592,5.21622 13.1825,9.82535 3.24627,-4.05289 3.9813,-5.22839 9.30466,-10.56055 4.49099,5.10618 7.51855,4.06372 12.78038,7.38798 1.25973,-4.30474 2.94027,-7.18179 3.3615,-7.62079 2.08599,6.17344 -0.27476,10.06355 -0.27476,10.06355 0,0 0.0435,2.83423 -14.99414,4.77636 -5.51135,0.7118 -10.73416,0.43091 -16.07476,0.4134 -5.3406,-0.0175 -11.96931,-0.20854 -16.053943,-0.59577 -16.692654,-1.58249 -15.093766,-5.7218 -15.093766,-5.7218 0,0 -0.820537,-3.79669 0.622171,-7.07555 z"
         sodipodi:nodetypes="ccccccccssscc" />
    </g>
    <g
       transform="translate(-21.498203,11.819777)"
       id="g998">
      <path
         id="path833"
         style="fill:#589d00;fill-opacity:1;stroke:#000000;stroke-width:0.952;stroke-miterlimit:4;stroke-dasharray:none;stroke-opacity:1"
         d="m 149.70059,68.559865 c 0,20.033685 -14.23513,29.659607 -42.98523,29.659607 -28.75009,0 -43.930155,-9.24795 -43.930155,-29.281632 0,-20.033681 15.369053,-39.10901 44.119145,-39.109012 28.7501,-4e-6 42.79624,18.697351 42.79624,38.731037 z"
         sodipodi:nodetypes="sssss" />
      <path
         id="path836"
         style="fill:#96ff11;fill-opacity:1;stroke:none;stroke-width:0.952;stroke-miterlimit:4;stroke-dasharray:none;stroke-opacity:1"
         inkscape:transform-center-y="1.4699824"
         d="m 149.31484,68.424755 c 0.0709,16.05033 -9.01396,23.758491 -24.9871,27.80801 -6.4509,1.635436 -22.31467,2.782533 -35.210279,-4.453823 C 77.357567,85.179895 76.40536,73.161024 76.40536,65.333233 c 0,-13.829721 13.888598,-37.778723 45.47053,-33.526491 8.45334,1.138168 19.10881,10.608628 23.37838,19.18184 3.21012,6.445863 4.0362,11.916605 4.06057,17.436173 z"
         sodipodi:nodetypes="sssssss" />
    </g>
    <g
       transform="matrix(0.71228124,0.2967052,-0.2967052,0.71228124,18.925192,26.880579)"
       id="g874">
      <path
         id="path839"
         style="fill:#589d00;fill-opacity:1;stroke:#000000;stroke-width:0.952;stroke-miterlimit:4;stroke-dasharray:none;stroke-opacity:1"
         d="M 67.289404,39.407226 C 61.923817,50.679308 62.015872,50.574051 61.735239,56.093166 38.962022,50.82085 34.807207,44.215669 32.268774,26.275969 c 16.918789,10.871956 24.669352,4.85625 35.02063,13.131257 z"
         sodipodi:nodetypes="cccc" />
      <path
         id="rect865"
         style="fill:#589d00;fill-opacity:1;stroke:none;stroke-width:0.952;stroke-miterlimit:4;stroke-dasharray:none;stroke-opacity:1"
         d="m 65.740763,38.911384 1.824114,1.19269 -5.285254,15.715449 -2.946647,-0.865286 z"
         sodipodi:nodetypes="ccccc" />
    </g>
    <g
       transform="translate(-21.498203,11.819777)"
       id="g1002">
      <path
         id="rect876"
         style="fill:#d2d2d2;fill-opacity:1;stroke:#000000;stroke-width:0.952;stroke-miterlimit:4;stroke-dasharray:none;stroke-opacity:1"
         d="m 69.006896,23.814579 c 3.16425,-2.157274 8.864978,-1.256353 14.918002,0.03589 0.943698,-5.788685 1.483849,-7.365982 4.656294,-11.843805 5.030607,2.02393 10.605023,2.54574 16.516278,6.642708 7.0143,-1.676275 9.45049,-6.077191 15.90988,-11.2605316 2.4973,4.8782676 4.70326,8.5770976 3.81445,13.4680586 4.13749,-0.452472 4.22093,0.49178 18.5621,-3.564134 1.96614,19.440993 -14.90381,21.593783 -17.88661,24.576585 C 112.90149,28.43526 96.556037,26.441482 77.535839,38.65715 75.573525,37.137899 71.885644,36.969793 69.006896,23.814575 Z"
         sodipodi:nodetypes="cccccccccc" />
      <path
         sodipodi:nodetypes="cccccc"
         d="m 116.66329,34.125849 c 5.49074,-8.789873 -5.13436,-11.929041 4.20523,-25.9841178 2.36894,4.6275318 4.46151,8.1362468 3.40301,13.2457578 3.92483,-0.429215 5.13965,0.407761 18.70455,-3.498427 2.02173,17.913075 -14.74478,20.836349 -17.41762,23.293806 -3.48222,-3.28546 -4.51768,-4.346301 -8.89517,-7.057019 z"
         style="fill:#f8f8f8;fill-opacity:1;stroke:none;stroke-width:0.903068;stroke-miterlimit:4;stroke-dasharray:none;stroke-opacity:1"
         id="rect876-1" />
    </g>
    <path
       sodipodi:nodetypes="sssss"
       d="m 97.082847,82.623793 c 0,8.522264 -3.99146,11.346694 -14.06271,10.860025 -8.810461,-0.425744 -10.513626,-6.368574 -8.469071,-11.746149 2.713755,-7.1377 6.118541,-9.530841 11.958181,-9.530839 5.83964,4e-6 10.5736,4.663836 10.5736,10.416963 z"
       style="fill:#ffffff;fill-opacity:1;stroke:#000000;stroke-width:1;stroke-miterlimit:4;stroke-dasharray:none;stroke-opacity:1"
       id="path914" />
    <circle
       r="4.4860024"
       cy="83.651192"
       cx="88.54731"
       id="path920"
       style="fill:#000000;fill-opacity:1;stroke:none;stroke-width:1;stroke-miterlimit:4;stroke-dasharray:none;stroke-opacity:1" />
    <path
       sodipodi:nodetypes="zzzzz"
       d="m 78.117866,67.626736 c 2.907001,-2.531112 21.325641,8.916236 21.420161,10.736521 0.0945,1.820285 -0.86964,3.238724 -2.01542,3.96022 -1.14578,0.721496 -21.194866,-3.289401 -22.216052,-5.895211 -1.021187,-2.605811 -0.09569,-6.270418 2.811311,-8.80153 z"
       style="fill:#96ff11;fill-opacity:1;stroke:#000000;stroke-width:0.952;stroke-miterlimit:4;stroke-dasharray:none;stroke-opacity:1"
       id="rect896" />
    <path
       sodipodi:nodetypes="sssss"
       d="m 124.69375,73.62078 c 1.54976,1.396284 5.32479,5.333926 -1.37527,12.733057 -3.58579,3.959933 -8.14185,0.431778 -9.90412,-5.482611 -1.4205,-4.767384 3.71869,-8.161132 6.30616,-8.461192 2.74607,-0.318453 1.45339,-1.9605 4.97323,1.210746 z"
       style="fill:#ffffff;fill-opacity:1;stroke:#000000;stroke-width:1;stroke-miterlimit:4;stroke-dasharray:none;stroke-opacity:1"
       id="path917" />
    <circle
       style="fill:#000000;fill-opacity:1;stroke:none;stroke-width:0.703704;stroke-miterlimit:4;stroke-dasharray:none;stroke-opacity:1"
       id="path920-8"
       cx="121.72157"
       cy="79.719025"
       r="3.1568165" />
    <path
       id="rect896-9"
       style="fill:#96ff11;fill-opacity:1;stroke:#000000;stroke-width:1;stroke-miterlimit:4;stroke-dasharray:none;stroke-opacity:1"
       d="m 122.42585,67.880842 c -2.42033,-1.161544 -12.66912,9.93351 -12.39572,11.173244 0.27345,1.239722 1.18331,2.013717 2.08617,2.286124 0.90287,0.272408 13.62267,-6.131141 13.8261,-8.069813 0.20342,-1.93867 -1.09621,-4.228011 -3.51655,-5.389555 z"
       sodipodi:nodetypes="zzzzz" />
    <ellipse
       ry="10.688869"
       rx="7.9751153"
       cy="94.395447"
       cx="109.31584"
       id="path937"
       style="fill:#96ff11;fill-opacity:1;stroke:#000000;stroke-width:1;stroke-miterlimit:4;stroke-dasharray:none;stroke-opacity:1" />
    <g
       transform="translate(-3.4441287,13.731096)"
       id="g989">
      <ellipse
         style="fill:#656565;fill-opacity:1;stroke:#000000;stroke-width:1;stroke-miterlimit:4;stroke-dasharray:none;stroke-opacity:1"
         id="path960"
         cx="68.223206"
         cy="116.7486"
         rx="21.32366"
         ry="22.324184" />
      <path
         id="path960-1"
         style="fill:#c4c4c4;fill-opacity:1;stroke:none;stroke-width:0.915966;stroke-miterlimit:4;stroke-dasharray:none;stroke-opacity:1"
         d="m 88.99682,116.77451 c 0.309525,11.86806 -9.186835,20.35978 -17.674628,21.59786 -12.938297,-14.58765 -10.833113,-31.86658 0.353739,-43.107275 9.593222,1.81291 17.320887,10.216185 17.320889,21.509415"
         sodipodi:nodetypes="cccc" />
      <ellipse
         ry="14.928506"
         rx="14.259442"
         cy="117.02791"
         cx="67.9244"
         id="path960-6"
         style="fill:#985e00;fill-opacity:1;stroke:#000000;stroke-width:1;stroke-miterlimit:4;stroke-dasharray:none;stroke-opacity:1" />
    </g>
    <path
       sodipodi:nodetypes="cscc"
       id="path1134"
       d="m 111.52006,64.586987 c 0,0 1.33909,2.228319 0.55963,3.711285 -0.77946,1.482966 -3.67746,2.220579 -7.91234,-2.104064 -2.88125,5.227965 -9.519152,5.12561 -7.602924,-0.76958"
       style="fill:none;stroke:#000000;stroke-width:1;stroke-linecap:butt;stroke-linejoin:miter;stroke-miterlimit:4;stroke-dasharray:none;stroke-opacity:1" />
  </g>
</svg>
