<?xml version="1.0" encoding="UTF-8" standalone="no"?>
<svg
   xmlns:osb="http://www.openswatchbook.org/uri/2009/osb"
   xmlns:dc="http://purl.org/dc/elements/1.1/"
   xmlns:cc="http://creativecommons.org/ns#"
   xmlns:rdf="http://www.w3.org/1999/02/22-rdf-syntax-ns#"
   xmlns:svg="http://www.w3.org/2000/svg"
   xmlns="http://www.w3.org/2000/svg"
   xmlns:sodipodi="http://sodipodi.sourceforge.net/DTD/sodipodi-0.dtd"
   xmlns:inkscape="http://www.inkscape.org/namespaces/inkscape"
   width="720"
   height="720"
   viewBox="0 0 190.5 190.50001"
   version="1.1"
   id="svg8"
   inkscape:version="1.0 (4035a4fb49, 2020-05-01)"
   sodipodi:docname="Wizzard_no_2_heroic.svg">
  <defs
     id="defs2">
    <linearGradient
       id="linearGradient2996"
       osb:paint="solid">
      <stop
         style="stop-color:#85007d;stop-opacity:1;"
         offset="0"
         id="stop2994" />
    </linearGradient>
    <linearGradient
       id="linearGradient2975"
       osb:paint="solid">
      <stop
         style="stop-color:#85007d;stop-opacity:1;"
         offset="0"
         id="stop2973" />
    </linearGradient>
    <filter
       inkscape:collect="always"
       style="color-interpolation-filters:sRGB"
       id="filter3446"
       x="-0.67173519"
       width="2.3434704"
       y="-0.67173519"
       height="2.3434704">
      <feGaussianBlur
         inkscape:collect="always"
         stdDeviation="3.592169"
         id="feGaussianBlur3448" />
    </filter>
  </defs>
  <sodipodi:namedview
     id="base"
     pagecolor="#ffffff"
     bordercolor="#666666"
     borderopacity="1.0"
     inkscape:pageopacity="0.0"
     inkscape:pageshadow="2"
     inkscape:zoom="0.97668026"
     inkscape:cx="351.25645"
     inkscape:cy="371.82735"
     inkscape:document-units="mm"
     inkscape:current-layer="layer1"
     inkscape:document-rotation="0"
     showgrid="false"
     inkscape:window-width="1920"
     inkscape:window-height="986"
     inkscape:window-x="-11"
     inkscape:window-y="-11"
     inkscape:window-maximized="1"
     units="px"
     inkscape:snap-global="false" />
  <metadata
     id="metadata5">
    <rdf:RDF>
      <cc:Work
         rdf:about="">
        <dc:format>image/svg+xml</dc:format>
        <dc:type
           rdf:resource="http://purl.org/dc/dcmitype/StillImage" />
        <dc:title />
      </cc:Work>
    </rdf:RDF>
  </metadata>
  <g
     inkscape:label="Layer 1"
     inkscape:groupmode="layer"
     id="layer1">
    <path
       sodipodi:nodetypes="ssssss"
       d="m 159.25782,93.519938 c 7.60963,0.976964 8.87877,1.129618 7.92577,8.552552 -0.953,7.42297 -3.47409,7.43256 -11.08372,6.4556 -7.60964,-0.97697 -6.91243,-3.51119 -5.95943,-10.934154 0.47649,-3.711477 1.1851,-9.254388 3.40247,-8.822824 3.95317,0.76943 1.91009,4.260344 5.71491,4.748826 z"
       style="fill:#efc386;fill-opacity:1;stroke:#000000;stroke-width:1;stroke-miterlimit:4;stroke-dasharray:none;stroke-opacity:1"
       id="path833-5-1" />
    <path
       id="rect1039"
       style="fill:#623300;fill-opacity:1;fill-rule:nonzero;stroke:#000000;stroke-width:0.677247;stroke-miterlimit:4;stroke-dasharray:none;stroke-opacity:1"
       d="m 160.00131,74.049874 c 0,0 7.30539,1.24641 8.28586,-10.902232 0.98047,-12.148646 -7.16811,-12.060794 -7.16811,-12.060794 0.15686,-4.89495 0.5614,-9.517083 0.55076,-12.748954 12.49277,2.226848 15.60006,10.902867 14.93309,21.499005 -0.6802,10.806242 -4.93708,19.361062 -10.35244,21.946784 -2.56035,22.843517 -7.09394,63.466827 -7.81693,64.110377 -1.07874,0.96022 -1.57416,1.36595 -2.49453,0.0263 -1.54711,-2.25191 4.0623,-71.870496 4.0623,-71.870496 z"
       sodipodi:nodetypes="czccscssc" />
    <path
       sodipodi:nodetypes="sssss"
       d="m 139.81776,123.7213 c -5.30279,1.24657 -12.27161,-8.65528 -9.78931,-12.95494 1.06019,-1.83641 10.31833,-13.905603 16.71909,-13.110233 3.97509,0.49394 10.72761,10.279343 10.19373,14.484053 -0.78956,6.21854 -15.1917,11.127 -17.12351,11.58112 z"
       style="fill:#85007d;fill-opacity:1;stroke:#000000;stroke-width:1;stroke-miterlimit:4;stroke-dasharray:none;stroke-opacity:1"
       id="rect990-2" />
    <g
       id="g986"
       transform="translate(-1.915557,-39.460474)">
      <path
         sodipodi:nodetypes="ssssscsszsss"
         d="m 78.561192,140.19109 c 14.020495,-9.39076 40.639368,-9.13757 51.200228,-0.67725 3.20525,2.56773 8.33278,19.5194 12.80132,35.8836 3.11599,11.41102 5.64814,31.44691 3.58816,34.82146 -4.53474,7.4286 -27.30733,5.08465 -32.12168,2.88511 -7.96735,-3.64006 1.12541,0.0305 -2.81346,-28.75635 3.06478,23.62083 -1.32525,29.3957 -10.49791,30.34092 -9.210429,0.94912 -24.835178,-4.16264 -32.815495,-3.1817 -15.960633,1.96188 -24.133771,3.14699 -29.163561,-1.28797 -5.02979,-4.43496 2.469059,-2.5263 5.858587,-3.73471 3.389529,-1.2084 7.378234,-1.89363 9.467403,-4.46653 14.583193,-17.9598 13.807952,-54.66758 24.496408,-61.82658 z"
         style="fill:#85007d;fill-opacity:1;stroke:#000000;stroke-width:1;stroke-miterlimit:4;stroke-dasharray:none;stroke-opacity:1"
         id="rect945" />
      <path
         sodipodi:nodetypes="sssss"
         d="m 131.64358,141.09885 c 2.08927,2.59419 -4.57771,18.69374 -20.396,21.27629 -12.502645,2.04124 -37.915612,-12.04891 -36.379151,-17.48368 1.267254,-4.48253 11.025304,-11.43278 30.961141,-11.93023 16.28488,-0.40635 22.66814,4.2315 25.81401,8.13762 z"
         style="fill:#85007d;fill-opacity:1;stroke:#000000;stroke-width:1;stroke-miterlimit:4;stroke-dasharray:none;stroke-opacity:1"
         id="path948" />
    </g>
    <g
       id="g982"
       transform="translate(3.9268918,-40.226697)"
       style="stroke-width:1;stroke-miterlimit:4;stroke-dasharray:none">
      <path
         sodipodi:nodetypes="sssssss"
         d="m 115.57176,172.83353 c 0.34476,7.2033 -2.58272,3.78159 -4.47309,5.49728 -1.89038,1.71568 2.95311,4.1884 -5.973,3.9835 -8.110328,-0.18617 -3.66894,-2.50914 -5.559307,-4.22483 -1.890373,-1.71568 -4.783372,1.01651 -4.886799,-5.25595 -0.08633,-5.23538 4.676875,-9.48079 10.446106,-9.48079 5.76921,0 10.19577,4.25069 10.44609,9.48079 z"
         style="fill:#ffffff;fill-opacity:1;stroke:#000000;stroke-width:1;stroke-miterlimit:4;stroke-dasharray:none;stroke-opacity:1"
         id="path951" />
      <path
         id="path956"
         d="m 103.05713,182.1764 0.24133,-3.72336"
         style="fill:none;stroke:#000000;stroke-width:1;stroke-linecap:butt;stroke-linejoin:miter;stroke-miterlimit:4;stroke-dasharray:none;stroke-opacity:1" />
      <path
         id="path958"
         d="m 107.22868,182.1764 -0.0345,-3.61993"
         style="fill:none;stroke:#000000;stroke-width:1;stroke-linecap:butt;stroke-linejoin:miter;stroke-miterlimit:4;stroke-dasharray:none;stroke-opacity:1" />
      <ellipse
         ry="3.0166125"
         rx="2.2753878"
         cy="170.98909"
         cx="101.67811"
         id="path960"
         style="fill:#000000;fill-opacity:1;stroke:none;stroke-width:1;stroke-miterlimit:4;stroke-dasharray:none;stroke-opacity:1" />
      <ellipse
         style="fill:#000000;fill-opacity:1;stroke:none;stroke-width:1;stroke-miterlimit:4;stroke-dasharray:none;stroke-opacity:1"
         id="path960-3"
         cx="109.74539"
         cy="171.42003"
         rx="2.2753878"
         ry="3.0166125" />
    </g>
    <path
       id="rect844-2-9"
       style="fill:#ffffff;fill-opacity:1;stroke:#000000;stroke-width:1;stroke-miterlimit:4;stroke-dasharray:none;stroke-opacity:1"
       d="m 90.97049,93.232389 16.38013,-3.839838 c 0,0 6.97599,23.431329 0.6997,33.298919 C 96.490925,116.25885 90.97049,93.232389 90.97049,93.232389 Z"
       sodipodi:nodetypes="cccc" />
    <path
       sodipodi:nodetypes="cccc"
       d="m 110.08429,87.112063 16.38012,-3.839837 c 0,0 6.79664,24.269004 0.52036,34.136584 -11.5594,-6.43261 -16.90048,-30.296747 -16.90048,-30.296747 z"
       style="fill:#ffffff;fill-opacity:1;stroke:#000000;stroke-width:1;stroke-miterlimit:4;stroke-dasharray:none;stroke-opacity:1"
       id="rect844-2" />
    <path
       id="rect838"
       style="fill:#818181;fill-opacity:1;stroke:#000000;stroke-width:1;stroke-miterlimit:4;stroke-dasharray:none;stroke-opacity:1"
       d="m 59.267204,63.953506 61.739256,-13.229841 8.01809,38.353176 c 0,0 -25.11603,5.77534 -31.31401,9.366985 -6.197973,3.591634 -15.794893,10.745884 -26.049809,11.098274 -3.736676,0.12841 -0.353984,-3.4808 1.011575,-10.881607 -11.968708,12.994447 -17.715001,12.192637 -17.948684,10.461567 -0.467364,-3.46214 7.349912,-20.847027 7.349912,-31.470991 0,-10.623963 -2.80633,-13.697563 -2.80633,-13.697563 z"
       sodipodi:nodetypes="ccczscszc" />
    <circle
       style="fill:#efc386;fill-opacity:1;stroke:#000000;stroke-width:1;stroke-miterlimit:4;stroke-dasharray:none;stroke-opacity:1"
       id="path833"
       cx="83.031685"
       cy="92.614449"
       r="32.316963"
       transform="rotate(-14.480423)" />
    <path
       id="rect844"
       style="fill:#ffffff;fill-opacity:1;stroke:#000000;stroke-width:1;stroke-miterlimit:4;stroke-dasharray:none;stroke-opacity:1"
       d="m 96.891902,98.118179 27.834268,-7.481066 c 0,0 5.98785,21.903307 -6.32693,33.330357 C 102.52816,120.11229 96.891902,98.118179 96.891902,98.118179 Z"
       sodipodi:nodetypes="cccc" />
    <path
       id="path835"
       style="fill:#85007d;fill-opacity:1;stroke:#000000;stroke-width:1;stroke-miterlimit:4;stroke-dasharray:none;stroke-opacity:1"
       d="M 78.227655,19.392839 C 98.419851,15.812086 126.19983,37.788397 136.43402,57.196448 127.79839,54.932035 112.32386,54.526129 89.022633,64.837893 65.721403,75.149657 42.859375,92.153512 47.048821,78.410401 48.905365,70.082144 64.616869,45.404456 70.497927,37.908559 59.507387,37.752606 59.502421,38.449115 52.169678,38.784701 44.836936,39.120288 42.49833,39.777315 38.226792,36.601858 57.414712,32.888692 58.035457,22.973592 78.227655,19.392839 Z"
       sodipodi:nodetypes="zczcczcz" />
    <path
       id="rect841"
       style="fill:#ffffff;fill-opacity:1;stroke:#000000;stroke-width:1;stroke-miterlimit:4;stroke-dasharray:none;stroke-opacity:1"
       d="m 72.320068,92.657057 c 0,0 10.632282,0.724388 18.943932,-4.215767 6.430547,-3.822099 15.61981,-2.428156 18.7391,2.627148 -0.0445,-5.859278 7.72573,-12.238148 15.77259,-11.064259 12.38306,1.806472 21.20218,-6.62773 21.20218,-6.62773 0,0 -5.46787,15.528713 -15.06483,19.693736 -6.3008,2.734506 -10.43931,2.750722 -14.41065,1.245042 -3.89734,3.857983 -6.56031,4.753899 -12.09082,3.091508 -2.7436,2.448561 -4.25139,5.090175 -12.954199,4.817855 -8.702811,-0.27231 -20.137303,-9.567533 -20.137303,-9.567533 z"
       sodipodi:nodetypes="cscscscczc" />
    <path
       id="path910"
       style="fill:#ffffff;fill-opacity:1;stroke:#000000;stroke-width:0.743728;stroke-miterlimit:4;stroke-dasharray:none;stroke-opacity:1"
       d="m 127.1367,65.691833 c 0.93053,2.45408 1.53396,3.512798 0.22359,5.19592 -1.31037,1.683121 3.70961,4.887816 1.87959,6.91058 -1.78807,1.976385 -5.11863,-3.695126 -8.36174,-2.169183 -2.37899,1.119357 -5.37156,0.309398 -6.82098,-0.338314 -1.87555,-0.838138 -3.54361,-2.463266 -4.23186,-5.128274 -0.80173,-3.104415 3.6193,-1.707179 8.39972,-2.941737 4.78042,-1.234558 7.77494,-4.526978 8.91171,-1.528992 z"
       sodipodi:nodetypes="sssssssss" />
    <path
       id="path877"
       style="fill:#ffffff;fill-opacity:1;stroke:#000000;stroke-width:0.739613;stroke-miterlimit:4;stroke-dasharray:none;stroke-opacity:1"
       d="m 131.22758,66.342092 c -4.2068,0.156299 -6.61438,0.149027 -13.26425,1.49415 -7.63267,1.543924 -11.09444,4.796555 -11.09444,4.796555 0.4013,-4.678594 5.04632,-8.729983 9.39265,-11.102889 7.62895,-4.165081 1.55427,2.875741 1.55427,2.875741 0,0 4.26786,-2.830709 7.94014,-3.584073 7.07831,-1.452109 1.57348,3.109804 1.57348,3.109804 0,0 4.52159,0.115266 6.26168,0.527614 1.74011,0.412346 2.24714,1.711797 -2.36353,1.883098 z"
       sodipodi:nodetypes="sscscscss" />
    <path
       sodipodi:nodetypes="sssssssss"
       d="m 81.792327,75.580893 c 0.413305,2.591828 0.416376,3.810435 2.390303,4.618878 1.973928,0.808441 -0.787203,6.085414 1.806472,6.930053 2.534213,0.825269 2.602789,-5.751506 6.175267,-6.0407 2.620599,-0.212143 4.813927,-2.40322 5.74921,-3.686028 1.210256,-1.659954 1.849079,-3.899456 1.120678,-6.553771 -0.8485,-3.09196 -3.988979,0.319072 -8.750219,1.625662 -4.761235,1.306591 -8.996639,-0.06035 -8.491736,3.105921 z"
       style="fill:#ffffff;fill-opacity:1;stroke:#000000;stroke-width:0.743728;stroke-miterlimit:4;stroke-dasharray:none;stroke-opacity:1"
       id="path910-6" />
    <path
       sodipodi:nodetypes="sscscscss"
       d="m 79.391934,79.440805 c 3.75642,-1.900225 5.859412,-3.072366 12.329045,-5.115394 7.425799,-2.344975 12.029641,-1.175311 12.029641,-1.175311 -2.61656,-3.899223 -8.642446,-5.194817 -13.594257,-5.16645 -8.691739,0.04979 0.03256,3.268728 0.03256,3.268728 0,0 -5.104831,-0.410184 -8.682682,0.708821 -6.896298,2.156876 0.129088,3.482822 0.129088,3.482822 0,0 -3.900356,2.29026 -5.223189,3.493618 -1.322842,1.203362 -1.137262,2.585829 2.979796,0.503166 z"
       style="fill:#ffffff;fill-opacity:1;stroke:#000000;stroke-width:0.739614;stroke-miterlimit:4;stroke-dasharray:none;stroke-opacity:1"
       id="path877-0" />
    <path
       id="path833-5"
       style="fill:#efc386;fill-opacity:1;stroke:#000000;stroke-width:1;stroke-miterlimit:4;stroke-dasharray:none;stroke-opacity:1"
       d="m 101.94712,105.89647 c 6.09678,-4.65727 7.10637,-5.44132 11.64938,0.50588 4.54304,5.94723 2.75753,7.72711 -3.33925,12.38438 -6.09678,4.65728 -7.38343,2.36537 -11.926461,-3.58186 -2.271512,-2.9736 -5.666055,-7.41242 -3.786207,-8.66508 3.35144,-2.23324 4.354156,1.68533 7.402538,-0.64332 z"
       sodipodi:nodetypes="ssssss" />
    <path
       id="rect990"
       style="fill:#85007d;fill-opacity:1;stroke:#000000;stroke-width:1;stroke-miterlimit:4;stroke-dasharray:none;stroke-opacity:1"
       d="m 88.136193,137.19463 c -5.202455,1.6149 -12.847662,-7.77456 -10.672603,-12.23752 0.928977,-1.90615 9.319098,-14.59412 15.759844,-14.24899 3.999917,0.21433 11.421196,9.50277 11.183116,13.73454 -0.3521,6.25858 -14.375099,12.16366 -16.270357,12.75197 z"
       sodipodi:nodetypes="sssss" />
    <g
       style="fill:#e20000;fill-opacity:1"
       id="g3452"
       transform="translate(26.548265,-14.628636)">
      <circle
         transform="matrix(1.8087523,0,0,1.8087523,-143.04182,-46.455731)"
         style="fill:#e20000;fill-opacity:1;fill-rule:nonzero;stroke:none;stroke-width:0.485508;stroke-miterlimit:4;stroke-dasharray:none;stroke-opacity:1;filter:url(#filter3446)"
         id="path3001-0"
         cx="158.79968"
         cy="43.291588"
         r="6.4171162" />
      <circle
         r="6.4171162"
         cy="32.61425"
         cx="144.82503"
         id="path3001"
         style="fill:#e20000;fill-opacity:1;fill-rule:nonzero;stroke:none;stroke-width:0.485507;stroke-miterlimit:4;stroke-dasharray:none;stroke-opacity:1" />
    </g>
  </g>
</svg>
